<?xml version="1.0" encoding="UTF-8" standalone="no"?>
<svg
   version="1.1"
   width="1254"
   height="1254"
   id="svg24"
   sodipodi:docname="ChatGPT Image May 27, 2026, 07_08_29 PM.svg"
   inkscape:version="1.4.2 (ebf0e940, 2025-05-08)"
   xmlns:inkscape="http://www.inkscape.org/namespaces/inkscape"
   xmlns:sodipodi="http://sodipodi.sourceforge.net/DTD/sodipodi-0.dtd"
   xmlns="http://www.w3.org/2000/svg"
   xmlns:svg="http://www.w3.org/2000/svg">
  <defs
     id="defs24" />
  <sodipodi:namedview
     id="namedview24"
     pagecolor="#ffffff"
     bordercolor="#000000"
     borderopacity="0.25"
     inkscape:showpageshadow="2"
     inkscape:pageopacity="0.0"
     inkscape:pagecheckerboard="0"
     inkscape:deskcolor="#d1d1d1"
     inkscape:zoom="0.57945992"
     inkscape:cx="170.84874"
     inkscape:cy="366.72079"
     inkscape:window-width="2560"
     inkscape:window-height="1382"
     inkscape:window-x="0"
     inkscape:window-y="30"
     inkscape:window-maximized="1"
     inkscape:current-layer="svg24" />
  <path
     d="M 0,0 C 3.3690966,0.04568954 6.7264493,0.02538029 10.094727,-0.06152344 33.172275,-0.65600893 48.693823,2.0052334 67.554291,15.789352 c 5.052503,3.546529 10.441589,6.497559 15.824371,9.507767 6.357876,3.625462 12.689776,7.274455 18.930758,11.097428 2.62697,1.608252 5.26286,3.201599 7.89889,4.794937 1.2669,0.771966 2.52922,1.551516 3.7865,2.33905 7.25154,5.012419 7.25154,5.012419 15.59088,6.463898 1.31563,-0.342518 2.6214,-0.72405 3.91797,-1.132813 1.8641,-0.396542 3.7302,-0.783666 5.59766,-1.164062 2.15569,-0.483655 4.3106,-0.970836 6.46484,-1.460938 l 3.51563,-0.783447 c 5.88195,-1.315392 11.75345,-2.662305 17.61216,-4.077088 2.76219,-0.665378 5.52726,-1.318279 8.29259,-1.970459 1.96843,-0.469882 3.93244,-0.958135 5.89627,-1.446838 22.33664,-5.258613 87.79993,9.265851 93.14472,14.35332 7.08068,7.963413 12.33673,17.535768 17.7341,26.670852 5.40564,9.126627 11.35642,17.857226 17.34857,26.605551 1.71916,2.51351 3.42921,5.03291 5.13492,7.55557 l 1.62825,2.40787 c 1.0505,1.55832 2.09792,3.11873 3.14206,4.68133 2.42417,3.62103 4.88269,7.19092 7.48823,10.68424 5.73551,7.81587 8.46237,13.57157 7.25,23.50659 l -0.23047,3.05273 c -0.44411,5.38061 -1.20026,10.70547 -1.98828,16.04493 -1.10712,7.55065 -1.84255,15.11464 -2.54806,22.71084 -1.7552,18.84778 -3.75826,37.66587 -5.80619,56.48374 -1.44502,13.30318 -2.8418,26.6084 -4.10278,39.93042 l -0.34239,3.61463 c -0.53686,5.69186 -1.06516,11.38439 -1.58315,17.07799 -0.19013,2.04648 -0.38032,4.09294 -0.57055,6.13941 l -0.24239,2.75135 c -0.48622,5.18428 -1.30919,10.18222 -2.38148,15.27599 -0.66439,3.44506 -0.94084,6.82699 -1.20035,10.32813 -0.11449,1.47754 -0.229,2.95507 -0.34351,4.43261 l -0.17135,2.30066 c -0.83965,11.20792 -1.75478,22.39291 -3.17655,33.54407 -1.36523,10.7547 -2.49137,21.52528 -3.5625,32.3125 l -0.25796,2.59335 c -0.89289,8.99752 -1.76356,17.99686 -2.5936,27.0004 l -0.2016,2.18089 c -0.3075,3.33261 -0.61102,6.66545 -0.90778,9.99904 -0.55663,6.11594 -1.22263,12.19312 -2.0625,18.2771 -0.9152,6.66266 -1.50373,13.30538 -1.97656,20.01172 -0.17491,2.16294 -0.35197,4.3257 -0.53125,6.48828 -0.28175,3.41408 -0.52257,6.8207 -0.6875,10.24219 l -0.28125,3.45703 -0.15625,2.83203 c -3.44513,6.03899 -15.48718,7.80362 -21.8789,9.85938 l -2.98525,0.97021 c -3.17962,1.03281 -6.36073,2.06095 -9.5421,3.08838 -4.40556,1.42519 -8.8105,2.8523 -13.21484,4.28125 l -3.29871,1.06972 c -6.60102,2.14748 -13.17952,4.35068 -19.74035,6.61778 -1.5227,0.52275 -3.0454,1.04545 -4.56812,1.56811 -2.7567,0.94719 -5.50592,1.91291 -8.25244,2.88916 l -3.68335,1.26539 -3.1333,1.10376 c -5.05843,1.06657 -9.68449,-0.0763 -14.52295,-1.67017 l -2.49121,-0.80811 -2.65723,-0.87939 c -1.9345,-0.62883 -3.86942,-1.25636 -5.80469,-1.88281 l -3.15918,-1.02442 c -3.73693,-1.19714 -7.48215,-2.3647 -11.23144,-3.52246 l -1.99612,-0.61651 c -2.63068,-0.81173 -5.26167,-1.62239 -7.89335,-2.43085 -1.84197,-0.5661 -3.6833,-1.13432 -5.52459,-1.70264 l -3.22559,-0.9917 c -2.54004,-0.82861 -2.54004,-0.82861 -4.54004,-1.82861 -0.0312,-27.24999 -0.0512,-54.49999 -0.0625,-81.75 l -0.001,-3.07094 c -0.024,-57.47834 0.0802,-114.9526 0.56381,-172.42906 l 0.0181,-2.15809 c 0.14731,-17.53076 0.30676,-35.0614 0.4819,-52.59191 l -2.90576,1.10156 c -3.55083,1.34512 -7.10329,2.68591 -10.65625,4.02539 -1.53886,0.58085 -3.07727,1.16288 -4.61523,1.7461 -2.208,0.83707 -4.41755,1.66992 -6.62745,2.50195 l -2.08981,0.79541 c -4.87775,1.82959 -4.87775,1.82959 -7.1055,1.82959 l 0.007,3.33729 c 0.19484,100.22872 -0.50503,200.44495 -2.00673,300.66271 -12.058277,4.34984 -24.11788,8.69575 -36.19531,12.99219 l -2.710511,0.96443 c -4.687785,1.66666 -9.377376,3.32811 -14.068786,4.98454 -8.816481,3.1164 -17.61663,6.25752 -26.361328,9.57056 -2.076959,0.77613 -4.154703,1.55011 -6.23285,2.32306 -1.857902,0.70009 -3.705631,1.42701 -5.552795,2.15497 -8.1044064,3.00477 -14.3720228,3.27792 -22.8784179,2.01025 -1.7953725,-0.20618 -3.5909371,-0.41069 -5.3867191,-0.61328 -1.767296,-0.23026 -3.534177,-0.46371 -5.300781,-0.69922 l -2.726929,-0.3634 c -7.799255,-1.05547 -15.578191,-2.22127 -23.355102,-3.42957 l -3.589478,-0.55505 c -2.880477,-0.44556 -5.760803,-0.89206 -8.640991,-1.33948 l -0.207596,-2.08942 c -0.660225,-6.64308 -1.321516,-13.28606 -1.983876,-19.92893 -0.340123,-3.41147 -0.679897,-6.82298 -1.018733,-10.23458 -1.729205,-17.40153 -3.527033,-34.79394 -5.406036,-52.17999 -0.674284,-6.26754 -1.335238,-12.53649 -1.99704,-18.80536 -0.278453,-2.63445 -0.556933,-5.26889 -0.835449,-7.90332 l -0.427185,-4.04114 -0.21679,-2.05064 c -0.148009,-1.40008 -0.296004,-2.80015 -0.443985,-4.20023 -1.712576,-16.20085 -3.435887,-32.40028 -5.217216,-48.59373 l -0.418839,-3.81173 c -0.649843,-5.90866 -1.303011,-11.81692 -1.961288,-17.72465 -1.04224,-9.41264 -2.010424,-18.79244 -2.609863,-28.24414 -0.383612,-4.78143 -1.071867,-9.51237 -1.734131,-14.26197 -0.94903,-7.14568 -1.622491,-14.32018 -2.334473,-21.49267 -1.12481,-11.24685 -2.291351,-22.48696 -3.558594,-33.71875 -0.231392,-2.06567 -0.462756,-4.13135 -0.694091,-6.19702 -0.337544,-3.01115 -0.677593,-6.02189 -1.026276,-9.03177 -1.260533,-10.88583 -2.284569,-21.51429 -1.908539,-32.48996 -3.754748,1.93679 -7.508368,3.87574 -11.260982,5.81665 -1.27509,0.65912 -2.55048,1.31765 -3.82618,1.97559 -1.84024,0.94922 -3.67937,1.90056 -5.51831,2.85229 l -3.34839,1.72974 c -4.10946,2.16935 -4.10946,2.16935 -8.04614,4.62573 -1.34684,6.29152 -0.0211,13.27395 0.90235,19.58203 1.38148,10.08616 2.21925,20.21524 3.09765,30.35547 0.97387,11.2213 1.98323,22.41194 3.43701,33.58325 1.28352,10.01464 2.31185,20.06282 3.40671,30.09939 0.22164,2.03101 0.44376,4.06196 0.66596,6.0929 3.09876,28.34169 6.06961,56.69674 9.01844,85.05438 0.36326,3.49336 0.72686,6.98669 1.09051,10.48001 0.178077,1.71161 0.355977,3.42325 0.533695,5.1349 0.964863,9.29033 1.946768,18.57834 2.971212,27.8623 l 0.277559,2.52516 c 0.431447,3.92434 0.866179,7.84824 1.308302,11.77139 0.931348,8.38347 1.611155,16.73779 2.037232,25.16297 0.200891,2.61318 0.542025,4.79809 1.253372,7.29585 0.93705,8.32933 1.109568,16.62747 1,25 -12.939332,7.31733 -26.056492,14.21344 -39.312502,20.9375 -2.75282,1.39852 -5.50513,2.79801 -8.25639,4.1996 -1.69077,0.86115 -3.38246,1.7205 -5.07523,2.57773 l -2.31022,1.17555 -2.16202,1.09494 c -2.04815,1.05645 -2.04815,1.05645 -4.43515,2.79813 -6.27338,3.11698 -14.31219,0.73248 -20.90552,-0.46314 l -2.98064,-0.52371 c -3.12611,-0.55084 -6.25044,-1.11108 -9.37483,-1.6716 -2.08648,-0.36911 -4.17306,-0.7376 -6.25976,-1.10547 -9.31427,-1.64569 -18.62259,-3.3231 -27.92774,-5.01953 -0.94822,-4.22633 -1.88976,-8.45409 -2.82593,-12.68311 -0.31731,-1.42941 -0.63624,-2.85847 -0.95703,-4.28711 -1.75104,-7.80387 -3.36136,-15.60079 -4.63012,-23.49853 -1.46778,-8.95618 -3.10243,-17.87428 -4.80176,-26.78906 l -0.45009,-2.37086 c -3.35194,-17.64827 -6.8723,-35.26222 -10.41942,-52.87212 -1.43424,-7.12159 -2.86527,-14.24382 -4.29455,-21.3664 l -0.4695,-2.33936 c -2.87564,-14.33745 -5.67054,-28.68944 -8.43123,-43.04949 -1.21186,-6.2984 -2.43137,-12.59532 -3.65006,-18.8924 -0.4865,-2.51546 -0.97299,-5.03092 -1.45947,-7.54639 -1.79871,-9.2987 -3.59928,-18.59704 -5.40066,-27.89523 -1.16917,-6.03493 -2.33803,-12.06992 -3.5051,-18.10525 -0.93931,-4.85709 -1.88062,-9.71379 -2.82379,-14.57013 -0.33323,-1.71759 -0.66573,-3.43532 -0.99744,-5.1532 -0.45146,-2.33741 -0.90559,-4.67429 -1.36041,-7.01105 l -0.75244,-3.88232 c -0.82142,-3.92919 -1.77361,-7.80018 -2.771,-11.68799 -3.16742,1.89457 -6.33379,3.79089 -9.5,5.6875 l -2.6875,1.60742 c -5.621,4.03937 -11.81148,7.40437 -17.46118,11.67358 0.53172,2.98915 1.05897,5.97906 1.58618,8.969 l 0.55274,3.0957 c 0.92673,5.27398 1.75354,10.49523 2.16821,15.83618 0.45368,2.83009 1.43215,5.41428 2.34155,8.13062 0.45553,2.05061 0.8722,4.11016 1.25391,6.17578 l 0.65039,3.50977 0.6582,3.62695 0.66992,3.5918 c 0.89832,4.89326 1.78443,9.74418 2.23243,14.70117 0.43877,4.42194 1.55482,8.57681 2.6748,12.86963 1.59354,6.52881 2.78595,13.13972 4.02246,19.74389 0.46421,2.47554 0.93585,4.94959 1.4082,7.42359 0.30253,1.60213 0.60463,3.20434 0.90625,4.80664 l 0.41983,2.19768 c 0.83399,4.48603 1.42361,8.94519 1.84076,13.48965 0.17464,1.95194 0.17464,1.95194 1.26285,3.86345 0.17861,1.39202 0.31956,2.78903 0.4375,4.1875 0.41933,4.1278 1.4121,7.81992 2.5625,11.8125 0.32769,1.82892 0.63325,3.66185 0.92359,5.49707 0.99549,6.10666 2.15054,12.1702 3.36157,18.2373 0.44889,2.26708 0.8977,4.53417 1.34643,6.80127 l 0.70786,3.56696 c 3.82228,19.28128 7.60181,38.57104 11.25403,57.88531 0.39399,2.0807 0.7899,4.16102 1.1878,6.24097 0.55105,2.88364 1.09493,5.76854 1.63669,8.65393 l 0.49075,2.54917 c 0.78943,4.2541 1.26828,8.2178 1.09128,12.56802 -8.02686,3.38036 -16.05856,6.74886 -24.09524,10.1058 -4.67288,1.95398 -9.33808,3.92519 -13.99872,5.90815 -3.0903,1.31211 -6.18509,2.61335 -9.28085,3.9125 -1.4964,0.6308 -2.99085,1.26624 -4.48328,1.90637 -2.09708,0.89867 -4.20045,1.78071 -6.30597,2.65937 l -3.63916,1.54248 c -3.3635,1.01567 -4.92028,1.12392 -8.19678,-0.0347 -2.27281,-1.70969 -4.33835,-3.41196 -6.4375,-5.3125 -1.24322,-1.09666 -2.48672,-2.193 -3.73047,-3.28906 l -1.91943,-1.70801 c -3.01852,-2.66789 -6.0935,-5.26861 -9.1626,-7.87793 -4.03212,-3.44452 -8.01479,-6.93052 -11.9375,-10.5 -8.83258,-8.04708 -8.83258,-8.04708 -18.5039,-15.01172 -3.36046,-3.34909 -3.67397,-6.7283 -4.4336,-11.30078 -0.32376,-1.7308 -0.64928,-3.46127 -0.97656,-5.19141 l -0.46191,-2.52783 c -0.5308,-2.7733 -1.20861,-5.49052 -1.93653,-8.21826 -2.91381,-11.3227 -4.92159,-22.88562 -7.0625,-34.375 -0.98323,-5.27419 -1.97191,-10.54687 -3,-15.8125 l -0.6914,-3.57031 c -0.6684,-3.24886 -0.6684,-3.24886 -1.71094,-6.07862 -1.08412,-3.37867 -1.73621,-6.65263 -2.34375,-10.14795 -1.22131,-6.79423 -2.62117,-13.53892 -4.10156,-20.28125 l -0.65049,-2.96618 c -0.89055,-4.05101 -1.78524,-8.1011 -2.68081,-12.151 -4.58855,-20.77885 -4.58855,-20.77885 -5.89698,-29.32959 -0.78661,-5.11273 -1.61316,-10.23062 -3.33813,-15.11573 -1.21698,-3.84604 -1.80715,-7.62816 -2.39844,-11.60937 -1.0617,-6.78181 -2.47085,-13.36906 -4.21435,-20.00537 -1.25184,-4.81615 -2.10367,-9.6039 -2.85205,-14.51807 -0.65311,-3.62632 -1.56119,-7.16554 -2.4961,-10.72656 -1.44263,-5.53581 -2.56829,-11.03412 -3.4375,-16.6875 -1.19258,-7.6786 -2.78861,-15.2335 -4.5,-22.8125 l -0.77929,-3.45508 c -0.52277,-2.31657 -1.04555,-4.63314 -1.56836,-6.94971 -1.25154,-5.5871 -2.46337,-11.18199 -3.65235,-16.78271 l -0.65185,-2.99854 -0.59034,-2.80224 -0.51904,-2.43091 -0.36377,-2.45581 -0.43188,-2.71167 c 0.67345,-5.12763 3.53538,-8.61228 6.45923,-12.78833 l 1.88588,-2.76587 c 1.99516,-2.92049 4.009,-5.82749 6.02427,-8.73413 1.97366,-2.8731 3.94339,-5.74886 5.91287,-8.62482 1.27951,-1.86762 2.56065,-3.73412 3.84345,-5.59949 4.26037,-6.2046 8.4025,-12.46799 12.42752,-18.82745 2.08082,-3.26549 4.22217,-6.48222 6.37866,-9.69824 4.81761,-7.19862 9.57041,-14.43903 14.3125,-21.6875 l 1.11621,-1.70422 c 1.07286,-1.63836 2.14436,-3.27761 3.21582,-4.91687 l 1.88599,-2.88453 c 1.92531,-2.82493 1.92531,-2.82493 2.9129,-5.13691 1.66187,-3.36417 2.85147,-5.4655 6.45418,-6.82416 3.08398,-0.55358 6.11029,-0.85441 9.23521,-1.08409 l 3.4741,-0.3477 c 3.67036,-0.36037 7.34288,-0.66997 11.01809,-0.97652 2.4183,-0.22369 4.83628,-0.45087 7.25391,-0.68164 l 3.58192,-0.34146 3.54698,-0.34018 3.52538,-0.3375 c 3.32304,-0.3217 6.6451,-0.65168 9.96681,-0.98672 l 2.93827,-0.29035 c 12.53786,-1.08007 12.53786,-1.08007 22.65841,-7.95086 l 1.59082,-2.00879 c 1.21595,-1.36592 2.43338,-2.73053 3.65235,-4.09375 l 1.66357,-1.94922 c 1.76913,-2.0179 3.67713,-3.7513 5.74658,-5.45703 3.77734,-3.18611 7.21335,-6.68553 10.68018,-10.19971 3.24411,-3.271158 6.60635,-6.32023 10.10888,-9.308106 2.24726,-1.996567 4.34989,-4.102317 6.46094,-6.242188 2.64731,-2.683261 5.31097,-5.252569 8.1875,-7.6875 4.6947,-4.01321 8.98208,-8.430212 13.30152,-12.838623 3.19161,-3.238145 6.44744,-6.139983 10.01098,-8.973877 l 2.72731,-1.982097 c 13.95992,0.14048 27.91887,0.213012 41.87952,0.212692 6.75189,0.0014 13.50229,0.02469 20.25377,0.101925 6.52997,0.07239 13.0577,0.08502 19.58799,0.05819 2.47682,-5.5e-5 4.95375,0.02053 7.43021,0.06325 16.31842,0.264132 27.00394,-1.748613 40.01354,-11.873084 3.645355,-2.734235 7.539431,-5.073922 11.420162,-7.455873 6.88075,-4.345101 13.755772,-8.699208 20.625,-13.0625 l 2.448486,-1.552246 2.516358,-1.600098 2.837646,-1.725341 c 2.572053,-1.723755 4.757438,-3.444804 7.084473,-5.45752 C -33.799499,-0.5392712 -18.333553,-0.25693279 0,0 Z"
     fill="#e6111b"
     id="path2"
     transform="translate(670.49634,248.14038)"
     sodipodi:nodetypes="ccccccccccccccccccsccccccccccccccccccccccccccccccccccccccccccccscscccsssscccccccccscccccccsccscsscccscsccccccccccccsccccccscssccscccccscccccccccccccccsccccsscscccccccccccccccccccccccccccccccccccccccccccccccccccccccccccccccccccccccccccccccccccccccccccccccccccccccccccccccccccccccc" />
  <path
     d="M0 0 C2.40006749 3.03291441 4.26087287 6.15695341 6.08203125 9.56640625 C6.67790039 10.67943115 7.27376953 11.79245605 7.88769531 12.93920898 C8.52944775 14.14689249 9.17104566 15.35465813 9.8125 16.5625 C10.47611646 17.80613528 11.13985519 19.04970532 11.80371094 20.29321289 C17.1249303 30.27882634 22.3467283 40.3155647 27.51879883 50.37915039 C28.06431396 51.4386792 28.6098291 52.49820801 29.171875 53.58984375 C29.6472168 54.51659912 30.12255859 55.44335449 30.61230469 56.39819336 C31.97073347 59.04142289 31.97073347 59.04142289 33.68994141 61.56640625 C35.1558167 64.28944854 35.25320931 65.34460654 34.7890625 68.34765625 C34.66950195 69.22566895 34.54994141 70.10368164 34.42675781 71.00830078 C34.28592773 71.99556152 34.14509766 72.98282227 34 74 C33.74999552 76.33120619 33.50854306 78.66333789 33.2734375 80.99609375 C32.97749202 83.81027338 32.67630531 86.62388962 32.375 89.4375 C32.2927417 90.20578125 32.2104834 90.9740625 32.12573242 91.765625 C30.1203878 110.40950381 27.88542537 129.02629609 25.63818359 147.64233398 C23.942901 161.7361597 22.35166886 175.83702595 20.84080315 189.95153809 C19.47187346 202.73340182 18.05221638 215.5088501 16.59765625 228.28125 C16.49513424 229.18180241 16.39261223 230.08235481 16.28698349 231.01019669 C15.5470283 237.50697377 14.8048992 244.00350182 14.0625 250.5 C13.1774614 258.24729055 12.29321583 265.99467112 11.41015625 273.7421875 C11.30331135 274.67926922 11.19646645 275.61635094 11.08638382 276.58182907 C9.79809967 287.88745311 8.52959253 299.19471251 7.30859375 310.5078125 C7.1908107 311.5941095 7.07302765 312.68040649 6.95167542 313.79962158 C6.44113844 318.51335985 5.93683038 323.22757478 5.44555664 327.94335938 C5.27644928 329.51695342 5.10711588 331.09052319 4.9375 332.6640625 C4.80214844 333.95779785 4.66679688 335.2515332 4.52734375 336.58447266 C3.54727859 342.93220948 2.16774806 346.34976175 -2.75 350.5 C-9.72388799 356.56366845 -16.19087097 363.12206577 -22.67712402 369.6965332 C-31.57065977 378.70838136 -31.57065977 378.70838136 -35.828125 382.328125 C-42.07075685 387.67126043 -47.72699447 393.66123199 -53.5 399.5 C-55.86154793 401.88844921 -58.22537535 404.27456882 -60.59375 406.65625 C-61.15924057 407.22496323 -61.72473114 407.79367645 -62.30735779 408.37962341 C-65.8385914 411.90669041 -69.4845444 415.22302078 -73.29541016 418.44775391 C-75.11458239 420.10434186 -76.66603401 421.86130476 -78.24609375 423.74609375 C-78.77525391 424.35517578 -79.30441406 424.96425781 -79.84960938 425.59179688 C-80.9071665 426.82106069 -81.93141689 428.07978718 -82.91992188 429.36523438 C-85.94646656 432.72365285 -88.09892436 433.88293636 -92.63818359 434.47265625 C-97.11021609 434.62074821 -101.54324442 434.35710296 -106 434 C-107.10684647 433.9115834 -107.10684647 433.9115834 -108.23605347 433.82138062 C-113.42290386 433.3757493 -118.58410097 432.76465219 -123.75 432.125 C-125.24859801 431.94836906 -126.74729627 431.77258654 -128.24609375 431.59765625 C-135.83499435 430.70040916 -143.38650845 429.66353532 -150.93505859 428.46875 C-156.08894982 427.68051747 -161.26061723 427.05353486 -166.4375 426.4375 C-167.52716064 426.30674072 -168.61682129 426.17598145 -169.73950195 426.04125977 C-176.47349888 425.24988089 -183.17428264 424.65259494 -189.94140625 424.23828125 C-193.03507825 423.99726721 -196.05753183 423.59137649 -199.125 423.125 C-207.59866536 421.84053036 -216.11573307 420.99834286 -224.63818359 420.10595703 C-230.68657123 419.46991786 -236.72194604 418.8055306 -242.75 418 C-249.85063223 417.07547798 -256.96838459 416.44867646 -264.10003662 415.81173706 C-276.71133892 414.68357474 -289.21768249 413.22555769 -301.75317383 411.4128418 C-309.83064751 410.258122 -317.88767163 409.39220056 -326.01782227 408.71850586 C-340.74458558 407.47154226 -355.41567201 405.37940092 -370 403 C-370.17540732 396.07199104 -369.69882722 389.46731529 -368.6875 382.6171875 C-368.55432373 381.67690704 -368.42114746 380.73662659 -368.28393555 379.76785278 C-367.8624485 376.80259755 -367.43140048 373.83882745 -367 370.875 C-366.71030071 368.84904929 -366.42123237 366.82300825 -366.1328125 364.796875 C-365.4291576 359.86351009 -364.71693234 354.93145214 -364 350 C-357.64455734 347.35572211 -351.29590461 345.04727305 -344.6875 343.125 C-343.83865234 342.87379395 -342.98980469 342.62258789 -342.11523438 342.36376953 C-334.85686742 340.22481121 -327.57496703 338.16833814 -320.29345703 336.10986328 C-315.841764 334.84306719 -311.43635998 333.51861423 -307.0625 332 C-300.4890795 329.73004184 -293.77039013 328.0109425 -287.05712891 326.2109375 C-281.36194811 324.67385003 -275.77377328 322.98318746 -270.19921875 321.05078125 C-264.13129702 319.05777643 -257.96533846 317.38953828 -251.8203125 315.65234375 C-244.56161715 313.59924107 -237.3229865 311.47806266 -230.08300781 309.36010742 C-228.21040619 308.81248069 -226.33676332 308.26839719 -224.46191406 307.72851562 C-222.3742067 307.11073312 -220.30550102 306.42929556 -218.2421875 305.734375 C-211.13151487 304.12376481 -204.46619744 306.97416069 -197.75 309.1875 C-195.79042296 309.82179496 -193.83078643 310.45590614 -191.87109375 311.08984375 C-190.39938721 311.5691333 -190.39938721 311.5691333 -188.89794922 312.05810547 C-182.27687217 314.21009496 -175.6409729 316.31428824 -168.99169922 318.37744141 C-167.22109362 318.93089131 -165.45582633 319.50135509 -163.69140625 320.07421875 C-162.76199219 320.35910156 -161.83257813 320.64398437 -160.875 320.9375 C-159.75738281 321.29134766 -159.75738281 321.29134766 -158.6171875 321.65234375 C-150.03218921 322.79273904 -142.11020178 319.59536932 -134.125 316.8125 C-131.44419048 315.89537419 -128.76102283 314.98521444 -126.078125 314.07421875 C-125.36280609 313.83034424 -124.64748718 313.58646973 -123.91049194 313.33520508 C-114.59748324 310.16718079 -105.23353543 307.15518177 -95.875 304.125 C-85.09950101 300.63397136 -74.33038125 297.12855447 -63.59765625 293.5078125 C-62.36166687 293.09168198 -62.36166687 293.09168198 -61.10070801 292.66714478 C-57.22893954 291.36298081 -53.35947067 290.0526532 -49.49365234 288.73095703 C-42.40767288 286.32762525 -35.41747794 284.15296431 -28 283 C-27.96261719 282.071875 -27.92523437 281.14375 -27.88671875 280.1875 C-27.40781694 269.70255155 -26.53638305 259.26107615 -25.5625 248.8125 C-25.47033707 247.8083606 -25.47033707 247.8083606 -25.37631226 246.78393555 C-24.74432348 239.93185774 -24.03813664 233.11328055 -23.05859375 226.30078125 C-21.19995958 212.77095261 -20.31329415 199.11484341 -19.17724609 185.50976562 C-18.86144599 181.74316654 -18.540283 177.97705089 -18.21875 174.2109375 C-18.12597778 173.07828461 -18.03320557 171.94563171 -17.93762207 170.77865601 C-17.36529085 164.09543761 -16.50765344 157.51510907 -15.44485474 150.89263916 C-14.91342657 147.43706188 -14.58046099 144.02959623 -14.32421875 140.54296875 C-14.22040176 139.19586774 -14.11638799 137.84878189 -14.01220703 136.50170898 C-13.933685 135.45380692 -13.933685 135.45380692 -13.85357666 134.38473511 C-12.63044313 118.20237728 -11.02077291 102.06918124 -9.30560303 85.93255615 C-8.03491674 73.97759438 -6.79249535 62.02138464 -5.63671875 50.0546875 C-5.52517456 48.90168655 -5.41363037 47.74868561 -5.29870605 46.56074524 C-4.76052656 40.98685914 -4.22727189 35.41254673 -3.69970703 29.83764648 C-2.74341345 19.83716402 -1.74219188 9.90028298 0 0 Z "
     fill="#E5111B"
     transform="translate(1025,519)"
     id="path3" />
</svg>
